<svg width="278" height="273" viewBox="0 0 278 273" version="1.1" xmlns="http://www.w3.org/2000/svg" xmlns:xlink="http://www.w3.org/1999/xlink">
<title>ic_timeline_48px</title>
<desc>Created using Figma</desc>
<g id="Canvas" transform="translate(1652 1259)">
<g id="ic_timeline_48px">
<g id="Vector">
<use xlink:href="#path0_fill" transform="translate(-1652 -1258.5)" fill="#2EE8B5"/>
</g>
</g>
</g>
<defs>
<path id="path0_fill" d="M 277.273 27.3334C 277.273 42.3667 266.8 54.6667 254 54.6667C 251.905 54.6667 249.927 54.3934 248.065 53.71L 201.458 209.949C 202.04 212.136 202.273 214.596 202.273 217.056C 202.273 232.089 191.8 244.389 179 244.389C 166.2 244.389 155.727 232.089 155.727 217.056C 155.727 214.596 155.96 212.136 156.542 209.949L 96.5509 134.1C 94.6891 134.783 92.5945 135.057 90.5 135.057C 88.4055 135.057 86.3109 134.783 84.4491 134.1L 45.7309 237.419C 46.3127 239.605 46.5455 241.929 46.5455 244.389C 46.5455 259.422 36.0727 271.722 23.2727 271.722C 10.4727 271.722 0 259.422 0 244.389C 0 229.355 10.4727 217.056 23.2727 217.056C 25.3673 217.056 27.3455 217.329 29.2073 218.012L 68.0418 114.83C 67.46 112.643 67.2273 110.183 67.2273 107.723C 67.2273 92.6899 77.7 80.3899 90.5 80.3899C 103.3 80.3899 113.773 92.6899 113.773 107.723C 113.773 110.183 113.54 112.643 112.958 114.83L 172.949 190.679C 174.811 189.996 176.905 189.722 179 189.722C 181.095 189.722 183.189 189.996 185.051 190.679L 231.542 34.3034C 230.96 32.1167 230.727 29.7934 230.727 27.3334C 230.727 12.3 241.2 0 254 0C 266.8 0 277.273 12.3 277.273 27.3334Z"/>
</defs>
</svg>
